<svg xmlns="http://www.w3.org/2000/svg" xmlns:xlink="http://www.w3.org/1999/xlink" id="Layer_1" x="0" y="0" enable-background="new 0 0 140 50" version="1.1" viewBox="0 0 140 50" xml:space="preserve"><g><polygon fill="#414042" points="14.5 26.9 14.5 4.9 5.5 4.9 5.5 35.9 36.5 35.9 36.5 26.9"/><polygon fill="#414042" points="56.8 4.9 56.8 24.9 65.8 24.9 65.8 13.9 73.1 13.9 73.1 4.9"/><polygon fill="#414042" points="38.5 4.9 38.5 24.9 47.5 24.9 47.5 13.9 54.8 13.9 54.8 4.9"/><polygon fill="#414042" points="86.6 4.9 86.6 15.9 84.2 15.9 84.2 4.9 75.2 4.9 75.2 24.9 86.6 24.9 86.6 26.9 38.5 26.9 38.5 35.9 95.6 35.9 95.6 4.9"/><rect width="9" height="20" x="104.5" y="15.9" fill="#8FC643"/><path fill="#8FC643" d="M115.5,15.9v20h20v-20H115.5z M124.1,27.3v-2.9h2.9v2.9H124.1z"/><path fill="#414042" d="M16.5,4.9v20h20v-20H16.5z M25.1,16.3v-2.9h2.9v2.9H25.1z"/><rect width="9" height="9" x="104.5" y="4.9" fill="#8FC643"/><rect width="4.5" height="4.5" x="97.8" y="31.4" fill="#8FC643"/><circle cx="100" cy="41.9" r="4.1" fill="#A7A9AC"/><circle cx="87.8" cy="41.9" r="4.1" fill="#A7A9AC"/><circle cx="13.7" cy="41.9" r="4.1" fill="#A7A9AC"/><circle cx="25.9" cy="41.9" r="4.1" fill="#A7A9AC"/><circle cx="125.3" cy="41.9" r="4.1" fill="#A7A9AC"/></g></svg>