<svg xmlns="http://www.w3.org/2000/svg" xmlns:xlink="http://www.w3.org/1999/xlink" id="Layer_1" x="0" y="0" enable-background="new 0 0 612 792" version="1.1" viewBox="0 0 612 792" xml:space="preserve"><g><path fill="#787878" d="M579.5,199.8c13.7-5.4,13.7-14.4,0-19.8L331.1,81.7c-13.8-5.5-36.4-5.5-50.1,0L32.5,180 c-13.7,5.4-13.7,14.4,0,19.8L281,298.3c13.8,5.4,36.3,5.4,50.1,0L579.5,199.8z"/><path fill="#787878" d="M273.5,313.4L25,215c-13.8-5.5-25,2.2-25,17v344.9c0,14.8,11.2,31.4,25,36.9l248.4,98.4 c13.8,5.4,25-2.2,25-17v-345C298.5,335.4,287.3,318.8,273.5,313.4z"/><path fill="#787878" d="M587,214.8l-248.4,98.4c-13.8,5.4-25.1,22-25.1,36.8v345c0,14.8,11.3,22.4,25.1,17L587,613.7 c13.8-5.5,25-22.1,25-36.9V231.9C612,217.1,600.7,209.4,587,214.8z"/></g></svg>