<svg xmlns="http://www.w3.org/2000/svg" xmlns:xlink="http://www.w3.org/1999/xlink" id="Layer_1" x="0" y="0" enable-background="new 0 0 155 20" version="1.1" viewBox="0 0 155 20" xml:space="preserve"><g><polygon fill="#CCC" points="21.7 .2 21.7 6.1 31.5 6.1 31.5 10 21.7 10 21.7 19.8 37.4 19.8 37.4 .2"/><polygon fill="#CCC" points="64.9 .2 64.9 6.1 74.7 6.1 74.7 10 64.9 10 64.9 19.8 80.5 19.8 80.5 .2"/><polygon fill="#FFF" points="113.9 .2 113.9 6.1 123.7 6.1 123.7 10 113.9 10 113.9 19.8 129.6 19.8 129.6 .2"/><polygon fill="#CCC" points="41.3 .2 41.3 19.8 47.2 19.8 47.2 6.1 55.1 6.1 55.1 19.8 61 19.8 61 .2"/><polygon fill="#FFF" points="84.4 .2 84.4 19.8 90.3 19.8 90.3 6.1 94.2 6.1 94.2 19.8 100.1 19.8 100.1 6.1 104.1 6.1 104.1 19.8 110 19.8 110 .2"/><polygon fill="#FFF" points="155.1 .2 147.3 .2 143.3 5.1 139.4 .2 131.6 .2 139.4 10 131.6 19.8 139.4 19.8 143.3 14.9 147.3 19.8 155.1 19.8 147.3 10"/><path fill="#CCC" d="M0.1,0.2v19.6H6v-3.9h11.8V0.2H0.1z M11.9,10H6V6.1h5.9V10z"/></g></svg>